<svg width="24" height="24" viewBox="0 0 24 24" fill="none" xmlns="http://www.w3.org/2000/svg">
<path d="M14 15.1206H10L10.503 14.7252C11.1818 14.1914 11.389 13.2641 11 12.4999L10.94 12.3601L11.5627 12.1724H12.5417L13.0597 12.3604L13 12.4999C12.6113 13.2641 12.8185 14.1912 13.4973 14.7249L14 15.1206Z" fill="#FBB540"/>
<path d="M14 16.7587H10V15.1208L10.3333 14.9979H13.6667L14 15.1208V16.7587Z" fill="#FBB540"/>
<path d="M11.5627 12.1724L10.9407 12.3604L11.0003 12.5C11.1348 12.7661 11.2003 13.0606 11.1913 13.3576C11.7261 13.4956 12.291 13.4712 12.8113 13.2875C12.8128 13.0143 12.8775 12.745 13.0003 12.5L13.0603 12.3601L12.542 12.1724H11.5627Z" fill="#EA9D2D"/>
<path d="M10 15.7759H14V17.0862H10V15.7759Z" fill="#EA9D2D"/>
<path d="M10 15H14V19H10V15Z" fill="#5D62B5"/>
<path d="M10 16H14V17H10V16Z" fill="#50559F"/>
<path d="M10 18H14V19H10V18Z" fill="#50559F"/>
<path d="M7 18H17V22H7V18Z" fill="#5D62B5"/>
<path d="M7.51709 19.0516H8.20674V21.9999H7.51709V19.0516Z" fill="#50559F"/>
<path d="M8.89648 19.0516H9.58614V21.9999H8.89648V19.0516Z" fill="#50559F"/>
<path d="M14.4141 19.0516H15.1037V21.9999H14.4141V19.0516Z" fill="#50559F"/>
<path d="M15.793 19.0516H16.4826V21.9999H15.793V19.0516Z" fill="#50559F"/>
<path d="M7.51709 4.3103H16.8274V5.62065H7.51709V4.3103Z" fill="#FBB540"/>
<path d="M15.7927 9.55168V8.24134H16.4824C17.8148 8.2399 18.8947 7.21407 18.8962 5.94823V5.62065H16.1376V4.3103H19.5858C19.9667 4.3103 20.2755 4.60362 20.2755 4.96548V5.94823C20.273 7.93738 18.5762 9.54935 16.4824 9.55168H15.7927Z" fill="#FBB540"/>
<path d="M8.20688 9.55168V8.24134H7.51723C6.18477 8.2399 5.10494 7.21407 5.10343 5.94823V5.62065H7.86205V4.3103H4.41378C4.03287 4.3103 3.72412 4.60362 3.72412 4.96548V5.94823C3.72658 7.93738 5.42339 9.54935 7.51723 9.55168H8.20688Z" fill="#FBB540"/>
<path d="M7.8623 3H16.1382V8.56897C16.1382 10.74 14.2855 12.5 12.0002 12.5C9.71493 12.5 7.8623 10.74 7.8623 8.56897V3Z" fill="#FBB540"/>
<path d="M7.8623 3H16.1382V4.96552H7.8623V3Z" fill="#FBB540"/>
<path d="M9 5H15V6H9V5Z" fill="#EA9D2D"/>
</svg>
